<?xml version="1.0" standalone="no"?>
<!DOCTYPE svg PUBLIC "-//W3C//DTD SVG 20010904//EN"
 "http://www.w3.org/TR/2001/REC-SVG-20010904/DTD/svg10.dtd">
<svg version="1.0" xmlns="http://www.w3.org/2000/svg"
 width="1024.000000pt" height="1024.000000pt" viewBox="0 0 1024.000000 1024.000000"
 preserveAspectRatio="xMidYMid meet">
<metadata>
Created by potrace 1.14, written by Peter Selinger 2001-2017
</metadata>
<g transform="translate(0.000000,1024.000000) scale(0.100000,-0.100000)"
fill="#000000" stroke="none">
<path d="M4377 8855 c-1 -2 -63 -5 -137 -9 -74 -3 -144 -8 -155 -10 -11 -2
-51 -7 -90 -11 -38 -4 -86 -11 -105 -15 -19 -5 -51 -11 -70 -14 -73 -11 -138
-25 -210 -46 -41 -12 -88 -25 -105 -29 -136 -35 -588 -240 -603 -273 -2 -5 -8
-8 -14 -8 -18 0 -230 -146 -328 -225 -152 -123 -281 -244 -420 -394 -8 -9 -28
-34 -43 -54 -16 -21 -36 -45 -46 -55 -34 -34 -98 -119 -156 -207 -33 -49 -63
-91 -67 -93 -5 -2 -8 -7 -8 -12 0 -4 -25 -52 -56 -106 -64 -112 -161 -314
-171 -353 -3 -14 -9 -30 -13 -36 -13 -19 -49 -130 -84 -258 -44 -160 -73 -315
-92 -497 -12 -118 -13 -143 -14 -325 -1 -168 2 -222 15 -335 3 -25 7 -65 10
-90 10 -82 16 -125 25 -160 5 -19 11 -53 14 -76 5 -42 36 -164 62 -249 65
-205 164 -429 269 -605 80 -136 79 -135 86 -140 3 -3 19 -25 34 -50 24 -38 58
-84 110 -147 6 -7 15 -18 20 -25 39 -52 164 -194 231 -262 51 -52 206 -190
279 -247 44 -35 83 -67 86 -72 3 -4 30 -23 60 -42 30 -19 63 -42 74 -51 61
-49 309 -184 445 -241 255 -109 406 -154 690 -204 30 -5 84 -12 120 -15 36 -3
83 -10 105 -14 42 -9 578 -6 630 3 17 3 55 9 85 12 30 4 64 9 75 11 11 2 40 6
65 10 115 16 437 107 545 154 11 5 54 23 95 41 157 67 421 214 526 292 23 18
52 39 64 47 13 8 35 25 50 37 l27 23 1 -150 c0 -147 10 -205 39 -241 7 -9 10
-19 6 -22 -4 -4 346 -360 778 -790 584 -584 795 -789 829 -805 97 -46 215 -45
312 3 78 38 535 496 566 566 51 117 48 205 -10 325 -13 27 -267 288 -786 807
-905 904 -807 827 -1056 829 l-154 0 52 72 c28 39 57 77 64 84 7 8 20 28 28
45 9 16 20 35 26 41 38 44 176 306 238 450 87 207 162 459 185 626 3 25 8 52
10 60 7 27 14 73 20 155 4 44 8 96 10 115 10 89 4 470 -9 545 -2 17 -8 59 -11
95 -4 36 -13 99 -21 140 -9 41 -18 89 -21 105 -5 34 -57 234 -72 280 -23 74
-92 248 -133 335 -93 199 -272 482 -378 600 -8 9 -35 41 -60 71 -111 133 -248
270 -374 373 -32 26 -70 58 -84 71 -15 14 -30 25 -34 25 -4 0 -16 10 -27 21
-11 12 -29 27 -40 33 -11 6 -61 39 -110 74 -50 34 -93 62 -96 62 -2 0 -34 18
-70 40 -93 57 -292 151 -420 198 -99 37 -298 98 -350 108 -11 2 -31 6 -45 9
-14 2 -38 7 -55 10 -16 2 -52 9 -80 14 -27 5 -75 12 -105 16 -30 3 -71 8 -90
10 -65 8 -377 24 -383 20z m243 -1180 c41 -4 84 -9 95 -11 10 -2 36 -6 56 -9
59 -9 224 -51 247 -64 12 -6 22 -10 22 -7 0 7 115 -41 199 -84 112 -56 226
-127 311 -194 92 -72 306 -285 347 -346 17 -25 39 -54 50 -65 55 -60 185 -305
232 -438 28 -81 62 -206 75 -282 30 -170 40 -416 21 -550 -3 -28 -8 -70 -11
-94 -15 -143 -86 -375 -160 -523 -122 -243 -237 -391 -469 -603 -50 -46 -189
-151 -241 -181 -218 -130 -489 -228 -689 -249 -33 -3 -75 -8 -94 -11 -93 -15
-325 -9 -474 11 -167 23 -359 78 -502 145 -82 38 -273 146 -285 160 -3 4 -32
26 -65 50 -116 84 -261 227 -340 335 -17 22 -32 42 -35 45 -13 13 -91 130 -97
146 -4 11 -19 37 -33 59 -34 51 -101 207 -134 310 -103 326 -119 686 -44 1020
11 50 21 95 22 100 10 47 67 195 106 274 77 158 191 329 275 417 17 17 46 48
66 70 45 50 143 140 192 179 21 17 50 39 65 51 110 86 332 202 490 254 152 50
276 75 432 86 47 3 86 7 88 9 5 4 207 -2 282 -10z"/>
</g>
</svg>
